Coordinates
version=1
nRows=8
nColumns=46
inDegrees=yes

Units are S.I. units (second, meters, Newtons, ...)
Angles are in degrees.

endheader
time	pelvis_tilt	pelvis_list	pelvis_rotation	pelvis_tx	pelvis_ty	pelvis_tz	bb_angle	bb_tx	bb_ty	bb_tz	hip_flexion_r	hip_adduction_r	hip_rotation_r	knee_angle_r	knee_angle_r_beta	ankle_angle_r	subtalar_angle_r	mtp_angle_r	crank_angle_r	hip_flexion_l	hip_adduction_l	hip_rotation_l	knee_angle_l	knee_angle_l_beta	ankle_angle_l	subtalar_angle_l	mtp_angle_l	crank_angle_l	lumbar_extension	lumbar_bending	lumbar_rotation	arm_flex_r	arm_add_r	arm_rot_r	elbow_flex_r	pro_sup_r	wrist_flex_r	wrist_dev_r	arm_flex_l	arm_add_l	arm_rot_l	elbow_flex_l	pro_sup_l	wrist_flex_l	wrist_dev_l
      2.50500000	    -23.75572796	     -6.74378318	    -14.77302022	      0.28455899	      1.24010874	     -0.23215488	      0.00000000	      0.50000000	      0.00000000	      0.25000000	     65.52788721	      9.11262984	      0.32823300	     76.97887392	      1.34353480	     23.72304013	      5.20208547	      0.00000000	      0.00000000	     27.45872041	    -13.11791642	     -2.04823553	     36.73008755	      0.64106096	    -16.65765971	    -16.86309178	      0.00000000	      0.00000000	    -65.08156060	      8.01111828	     11.45970001	     71.49091902	      0.63933569	     27.77084245	     67.30554191	     51.73803747	      0.00000000	      0.00000000	     54.51996465	    -18.88239325	      7.40199485	     70.42278415	     54.29728805	      0.00000000	      0.00000000
      2.51000000	    -23.80009111	     -6.33810154	    -14.45553574	      0.28376418	      1.23792123	     -0.23353136	      0.00000000	      0.50000000	      0.00000000	      0.25000000	     65.33961352	      8.52152084	      0.37414688	     75.91636151	      1.32499046	     23.73433544	      5.12004609	      0.00000000	      0.00000000	     28.50725420	    -12.47871638	     -1.57795596	     38.95987097	      0.67997802	    -15.57108791	    -17.49114992	      0.00000000	      0.00000000	    -65.21120831	      8.31985875	     11.41340639	     71.26466305	      0.73686363	     27.27213738	     68.42374072	     51.84887841	      0.00000000	      0.00000000	     54.53679953	    -18.96750024	      7.50285853	     70.81512500	     54.39875590	      0.00000000	      0.00000000
      2.51500000	    -23.92214038	     -5.90504611	    -14.18584997	      0.28301575	      1.23538311	     -0.23460501	      0.00000000	      0.50000000	      0.00000000	      0.25000000	     65.23531712	      8.05524390	      0.49275932	     74.85629822	      1.30648887	     23.67712723	      4.77264980	      0.00000000	      0.00000000	     29.67784669	    -11.89749742	     -1.24505373	     41.27154647	      0.72032437	    -14.42885040	    -17.89191043	      0.00000000	      0.00000000	    -65.16951870	      8.41654215	     11.66648874	     70.48007488	      0.51897167	     25.81988286	     70.85617290	     52.01680719	      0.00000000	      0.00000000	     54.60517233	    -18.74195659	      8.01283730	     71.52792744	     54.67125882	      0.00000000	      0.00000000
      2.52000000	    -24.04540232	     -5.54715289	    -13.83173272	      0.28223151	      1.23281800	     -0.23584841	      0.00000000	      0.50000000	      0.00000000	      0.25000000	     65.08545767	      7.56393682	      0.55334375	     73.75236613	      1.28722162	     23.55092803	      4.39148305	      0.00000000	      0.00000000	     30.91958148	    -11.35203205	     -0.85512375	     43.61718358	      0.76126346	    -13.44367507	    -18.26491501	      0.00000000	      0.00000000	    -65.10461970	      8.76100773	     11.70754320	     70.21768645	      0.62831496	     25.19658482	     71.87688098	     52.09129970	      0.00000000	      0.00000000	     54.61453024	    -18.78869248	      8.34602968	     71.89903495	     54.80097699	      0.00000000	      0.00000000
      2.52500000	    -24.14560994	     -5.10188301	    -13.52784660	      0.28147684	      1.23010668	     -0.23707651	      0.00000000	      0.50000000	      0.00000000	      0.25000000	     64.88851928	      7.25148119	      1.01387027	     72.58580314	      1.26686125	     23.38893210	      3.72041064	      0.00000000	      0.00000000	     32.16182393	    -10.72143050	     -0.56800907	     46.00129460	      0.80287405	    -12.59673705	    -18.79432326	      0.00000000	      0.00000000	    -65.01654209	      8.99590592	     11.80107783	     69.85804713	      0.72594213	     24.19300457	     73.23296434	     52.17397734	      0.00000000	      0.00000000	     54.63717244	    -18.81834073	      8.80502555	     72.39514696	     54.96849880	      0.00000000	      0.00000000
      2.53000000	    -23.92211752	     -4.62073389	    -13.27221898	      0.28090941	      1.22770268	     -0.23825356	      0.00000000	      0.50000000	      0.00000000	      0.25000000	     64.35582129	      6.90477201	      1.59835434	     71.49039713	      1.24774281	     23.24113024	      3.38429096	      0.00000000	      0.00000000	     33.01688699	    -10.06194121	     -0.59526801	     48.31885062	      0.84332303	    -11.86988309	    -19.46614238	      0.00000000	      0.00000000	    -65.16246850	      9.08819710	     11.73787542	     69.86068283	      0.76239120	     23.76042541	     73.76502434	     52.20256353	      0.00000000	      0.00000000	     54.82585474	    -18.73661346	      9.04994168	     72.61380330	     55.04156769	      0.00000000	      0.00000000
      2.53500000	    -24.17637159	     -4.31563452	    -12.91685977	      0.28012418	      1.22442139	     -0.23913554	      0.00000000	      0.50000000	      0.00000000	      0.25000000	     64.25623159	      6.73872058	      2.07008767	     70.30934643	      1.22712959	     22.94077903	      2.70367707	      0.00000000	      0.00000000	     34.54567988	     -9.61989771	     -0.23236821	     50.90528415	      0.88846482	    -10.96764761	    -19.58681346	      0.00000000	      0.00000000	    -64.87698006	      9.25482149	     12.39976389	     68.80761435	      0.54464528	     21.73830092	     76.13732769	     52.32168292	      0.00000000	      0.00000000	     55.08057448	    -18.44982321	     10.43858055	     72.98104587	     55.31899229	      0.00000000	      0.00000000
      2.54000000	    -24.01328460	     -3.89191648	    -12.54356426	      0.27979196	      1.22165830	     -0.24031145	      0.00000000	      0.50000000	      0.00000000	      0.25000000	     63.69031064	      6.42843263	      2.75444314	     69.17848405	      1.20739232	     22.81380923	      2.24694995	      0.00000000	      0.00000000	     35.54699673	     -8.92784183	     -0.05111479	     53.33163536	      0.93081263	    -10.32623029	    -20.21621923	      0.00000000	      0.00000000	    -64.88398790	      9.51524127	     12.36993375	     68.66590929	      0.55931397	     21.39358847	     76.61979264	     52.35225591	      0.00000000	      0.00000000	     55.20360463	    -18.31936969	     10.75529542	     72.95964495	     55.36295440	      0.00000000	      0.00000000
